<?xml version="1.0" encoding="UTF-8" standalone="no"?>
<!-- Created with Inkscape (http://www.inkscape.org/) -->

<svg
   xmlns:dc="http://purl.org/dc/elements/1.1/"
   xmlns:cc="http://creativecommons.org/ns#"
   xmlns:rdf="http://www.w3.org/1999/02/22-rdf-syntax-ns#"
   xmlns:svg="http://www.w3.org/2000/svg"
   xmlns="http://www.w3.org/2000/svg"
   xmlns:sodipodi="http://sodipodi.sourceforge.net/DTD/sodipodi-0.dtd"
   xmlns:inkscape="http://www.inkscape.org/namespaces/inkscape"
   width="842.54901"
   height="163.87793"
   id="svg2"
   version="1.1"
   inkscape:version="0.48.4 r9939"
   sodipodi:docname="New document 1">
  <defs
     id="defs4" />
  <sodipodi:namedview
     id="base"
     pagecolor="#ffffff"
     bordercolor="#666666"
     borderopacity="1.0"
     inkscape:pageopacity="0.0"
     inkscape:pageshadow="2"
     inkscape:zoom="0.7"
     inkscape:cx="274.21851"
     inkscape:cy="61.237305"
     inkscape:document-units="px"
     inkscape:current-layer="layer1"
     showgrid="false"
     showguides="true"
     inkscape:guide-bbox="true"
     fit-margin-top="0"
     fit-margin-left="0"
     fit-margin-right="0"
     fit-margin-bottom="0"
     inkscape:window-width="1680"
     inkscape:window-height="975"
     inkscape:window-x="-9"
     inkscape:window-y="-9"
     inkscape:window-maximized="1" />
  <metadata
     id="metadata7">
    <rdf:RDF>
      <cc:Work
         rdf:about="">
        <dc:format>image/svg+xml</dc:format>
        <dc:type
           rdf:resource="http://purl.org/dc/dcmitype/StillImage" />
        <dc:title></dc:title>
      </cc:Work>
    </rdf:RDF>
  </metadata>
  <g
     inkscape:label="Layer 1"
     inkscape:groupmode="layer"
     id="layer1"
     transform="translate(-28.030818,-225.57181)">
    <path
       style="fill:#004b8e;fill-opacity:1;stroke:none"
       d="m 175.51401,295.88419 c 0.002,-11.23659 7.97454,-20.71694 26.76904,-20.58185 12.89142,0.16666 16.92005,3.03045 16.92005,3.03045 l -4.45098,11.80616 c -4.41638,-1.6389 -7.29818,-2.926 -13.35296,-3.03046 -6.05478,-0.10446 -11.45951,3.0697 -10.89071,6.7554 0.74284,4.66375 7.63922,6.89053 13.16356,9.75429 5.52434,2.86376 11.86118,7.89199 11.74302,16.35184 0.0397,16.69891 -16.62634,21.54113 -27.02158,21.74985 -10.39524,0.20872 -16.76869,-2.47598 -21.08693,-5.05077 l 4.92449,-11.45891 c 4.96356,1.81106 10.74582,4.43706 17.14102,4.51411 6.39521,0.077 10.65243,-2.6249 10.76444,-7.3236 0.0489,-5.14064 -10.33876,-9.10157 -13.38452,-10.6066 -3.04576,-1.50503 -11.20792,-6.63569 -11.23794,-15.90991 z"
       id="path3010"
       inkscape:connector-curvature="0"
       sodipodi:nodetypes="cccczczcccczczc" />
    <path
       style="fill:#004b8e;fill-opacity:1;stroke:none"
       d="m 147.32143,340.58344 9.75729,-52.40166 14.52842,0 c 2.74062,-8.56139 7.68019,-10.28157 12.5,-12.37437 l -54.55357,0 -2.41071,12.37437 15.44643,0 -9.46429,52.40166 z"
       id="path3018"
       inkscape:connector-curvature="0"
       sodipodi:nodetypes="ccccccccc" />
    <path
       style="fill:#004b8e;fill-opacity:1;stroke:none"
       d="m 71.25,340.58344 43.125,0 2.14286,-12.14983 -28.571431,0 2.857143,-14.91072 25.624998,0 2.14286,-12.05357 -25.44643,0 2.321429,-13.28754 26.964281,0 2.5,-12.37437 -41.696424,0 z"
       id="path3020"
       inkscape:connector-curvature="0"
       sodipodi:nodetypes="ccccccccccccc" />
    <path
       style="fill:#8a2529;fill-opacity:1;stroke:none"
       d="m 100.53571,265.21932 c 0,0 33.15669,-40.14428 92.14286,-39.64285 51.54472,0.43818 72.38302,29.94159 73.03572,58.75 0.64228,28.34873 -33.03572,56.25697 -33.03572,56.25697 0,0 16.65359,-23.48189 16.42858,-48.93554 -0.2736,-30.95003 -21.45662,-53.53498 -66.25,-54.28572 -44.43845,-0.74478 -82.32144,27.85714 -82.32144,27.85714 z"
       id="path3022"
       inkscape:connector-curvature="0"
       sodipodi:nodetypes="csscssc" />
    <path
       style="fill:#004b8e;fill-opacity:1;stroke:none"
       d="m 107.13613,247.56778 c -31.326556,9.98933 -79.346979,44.01769 -79.104397,83.79802 0.20456,33.54524 30.896815,58.01514 82.832507,58.08377 79.52718,0.10509 120.20719,-47.7947 120.20719,-47.7947 0,0 -40.82437,35.00272 -108.21429,36.95731 -32.241796,0.93514 -77.84098,-12.07332 -77.142854,-51.60714 0.87066,-49.30417 61.421844,-79.43726 61.421844,-79.43726 z"
       id="path3026"
       inkscape:connector-curvature="0"
       sodipodi:nodetypes="csscssc" />
    <g
       transform="scale(0.9712286,1.0296237)"
       style="font-size:15.66735363px;font-style:normal;font-variant:normal;font-weight:normal;font-stretch:normal;line-height:125%;letter-spacing:0px;word-spacing:0px;fill:#004b8e;fill-opacity:1;stroke:none;font-family:Arial;-inkscape-font-specification:Arial"
       id="text3796">
      <path
         d="m 263.11137,344.56558 -1.87427,0 -0.94096,-2.64692 c -0.18871,-0.52531 -0.44498,-0.92056 -0.76883,-1.18577 -0.32386,-0.26519 -0.75864,-0.39779 -1.30434,-0.3978 l -2.18792,0 0,4.23049 -1.72892,0 0,-10.3735 4.60535,0 c 0.5508,1e-5 1.05825,0.0485 1.52236,0.14535 0.4641,0.0969 0.86318,0.25884 1.19724,0.48578 0.33405,0.22696 0.59415,0.52787 0.78031,0.90271 0.18614,0.37486 0.27922,0.84024 0.27923,1.39614 -1e-5,0.72931 -0.19764,1.32347 -0.59288,1.78247 -0.39527,0.45901 -0.955,0.75736 -1.6792,0.89506 0.3774,0.1479 0.69743,0.38633 0.96009,0.71528 0.26264,0.32895 0.49087,0.75608 0.68468,1.28139 z m -7.07632,-5.6993 2.69283,0 c 0.3825,0 0.71145,-0.0306 0.98686,-0.0918 0.27539,-0.0612 0.50107,-0.1581 0.67703,-0.29071 0.17594,-0.13259 0.30599,-0.30472 0.39015,-0.51638 0.0841,-0.21164 0.12622,-0.46792 0.12623,-0.76883 -10e-6,-0.5406 -0.16194,-0.94478 -0.48578,-1.21254 -0.32386,-0.26774 -0.82749,-0.40162 -1.51089,-0.40163 l -2.87643,0 z"
         style="font-weight:bold;text-align:start;writing-mode:lr-tb;text-anchor:start;fill:#004b8e;font-family:Shruti;-inkscape-font-specification:Shruti Bold"
         id="path3803"
         inkscape:connector-curvature="0" />
    </g>
    <path
       sodipodi:type="arc"
       style="fill:none;stroke:#004b8e;stroke-opacity:1"
       id="path3800"
       sodipodi:cx="251.25"
       sodipodi:cy="349.50504"
       sodipodi:rx="8.5714283"
       sodipodi:ry="8.5714283"
       d="m 259.82143,349.50504 c 0,4.73386 -3.83756,8.57142 -8.57143,8.57142 -4.73387,0 -8.57143,-3.83756 -8.57143,-8.57142 0,-4.73387 3.83756,-8.57143 8.57143,-8.57143 4.73387,0 8.57143,3.83756 8.57143,8.57143 z" />
    <g
       id="g3805"
       style="font-size:15.66735363px;font-style:normal;font-variant:normal;font-weight:normal;font-stretch:normal;line-height:125%;letter-spacing:0px;word-spacing:0px;fill:#004b8e;fill-opacity:1;stroke:none;font-family:Arial;-inkscape-font-specification:Arial"
       transform="matrix(0.9712286,0,0,1.0296237,610.25841,24.685603)">
      <path
         id="path3807"
         style="font-weight:bold;text-align:start;writing-mode:lr-tb;text-anchor:start;fill:#004b8e;font-family:Shruti;-inkscape-font-specification:Shruti Bold"
         d="m 263.11137,344.56558 -1.87427,0 -0.94096,-2.64692 c -0.18871,-0.52531 -0.44498,-0.92056 -0.76883,-1.18577 -0.32386,-0.26519 -0.75864,-0.39779 -1.30434,-0.3978 l -2.18792,0 0,4.23049 -1.72892,0 0,-10.3735 4.60535,0 c 0.5508,1e-5 1.05825,0.0485 1.52236,0.14535 0.4641,0.0969 0.86318,0.25884 1.19724,0.48578 0.33405,0.22696 0.59415,0.52787 0.78031,0.90271 0.18614,0.37486 0.27922,0.84024 0.27923,1.39614 -1e-5,0.72931 -0.19764,1.32347 -0.59288,1.78247 -0.39527,0.45901 -0.955,0.75736 -1.6792,0.89506 0.3774,0.1479 0.69743,0.38633 0.96009,0.71528 0.26264,0.32895 0.49087,0.75608 0.68468,1.28139 z m -7.07632,-5.6993 2.69283,0 c 0.3825,0 0.71145,-0.0306 0.98686,-0.0918 0.27539,-0.0612 0.50107,-0.1581 0.67703,-0.29071 0.17594,-0.13259 0.30599,-0.30472 0.39015,-0.51638 0.0841,-0.21164 0.12622,-0.46792 0.12623,-0.76883 -10e-6,-0.5406 -0.16194,-0.94478 -0.48578,-1.21254 -0.32386,-0.26774 -0.82749,-0.40162 -1.51089,-0.40163 l -2.87643,0 z"
         inkscape:connector-curvature="0" />
    </g>
    <path
       d="m 259.82143,349.50504 c 0,4.73386 -3.83756,8.57142 -8.57143,8.57142 -4.73387,0 -8.57143,-3.83756 -8.57143,-8.57142 0,-4.73387 3.83756,-8.57143 8.57143,-8.57143 4.73387,0 8.57143,3.83756 8.57143,8.57143 z"
       sodipodi:ry="8.5714283"
       sodipodi:rx="8.5714283"
       sodipodi:cy="349.50504"
       sodipodi:cx="251.25"
       id="path3809"
       style="fill:none;stroke:#004b8e;stroke-opacity:1"
       sodipodi:type="arc"
       transform="translate(610.25841,24.685603)" />
    <path
       style="fill:#004b8e;fill-opacity:1;stroke:none"
       d="m 495.71875,230.09375 c -54.80486,0 -81.55223,50.39163 -81.0625,92.6875 0.50974,44.02414 31.26234,62.628 59.875,62.625 56.41279,-0.007 80.18725,-50.52981 80.28125,-91.65625 0.0665,-29.07353 -11.57006,-63.65625 -59.09375,-63.65625 z m -3.875,21.875 c 29.62812,0.0389 35.21119,21.92041 35.46875,40.5 0.39872,28.76306 -14.27865,71.5714 -48.75,71.21875 -29.96494,-0.30654 -36.13734,-23.27621 -36.125,-41.65625 0.0253,-37.63725 20.84167,-70.1 49.40625,-70.0625 z"
       id="path3813"
       inkscape:connector-curvature="0" />
    <path
       style="fill:#004b8e;fill-opacity:1;stroke:none"
       d="m 360.62446,383.07646 23.99112,-128.48225 41.41626,0 4.54568,-22.58917 -109.60155,0 -4.04061,22.58917 41.41626,0 -23.99113,128.48225 z"
       id="path3821"
       inkscape:connector-curvature="0" />
    <path
       style="fill:#004b8e;fill-opacity:1;stroke:none"
       d="m 552.04837,383.07646 29.04188,-151.07142 83.59013,0 -4.29315,22.58917 -57.83124,0 -7.3236,39.39595 54.04316,0 -4.16688,21.46574 -53.85867,0 -8.39286,45.20432 60.10496,0 -4.2121,22.41624 z"
       id="path3829"
       inkscape:connector-curvature="0" />
    <path
       style="fill:#004b8e;fill-opacity:1;stroke:none"
       d="m 656.40975,383.07646 28.91562,-151.07142 83.09588,0 -4.24085,22.58917 -57.05195,0 -8.22916,42.17387 53.03301,0 -4.92449,22.47589 -52.5496,0 -11.84763,63.83249 z"
       id="path3831"
       inkscape:connector-curvature="0"
       sodipodi:nodetypes="ccccccccccc" />
    <path
       style="fill:#004b8e;fill-opacity:1;stroke:none"
       d="m 754.64286,383.07646 28.75,-151.07142 26.60714,0 -25,128.65518 59.28572,0 -4.10715,22.41624 z"
       id="path3833"
       inkscape:connector-curvature="0" />
  </g>
</svg>
